<svg width="550" height="550" viewBox="0 0 550 550" fill="none" xmlns="http://www.w3.org/2000/svg">
<path fill-rule="evenodd" clip-rule="evenodd" d="M521.847 214.523C523.291 214.833 525.175 215.532 526.038 216.082C526.9 216.632 528.363 218.201 529.306 219.58C530.248 220.969 531 223.967 531 226.326C530.99 229.794 530.368 231.213 527.581 234.071C524.774 236.95 523.441 237.569 520.062 237.569C517.797 237.569 514.709 236.959 513.195 236.21C511.681 235.46 509.596 233.102 508.573 230.963C507.323 228.371 506.906 225.993 507.32 223.827C507.661 222.038 508.944 219.42 510.187 218.011C511.431 216.602 513.967 215.113 515.832 214.703C517.706 214.303 520.413 214.223 521.847 214.523V214.523ZM451.038 246.604C453.805 246.584 457.374 247.363 459.559 248.453C461.624 249.502 466.256 252.61 469.835 255.378C473.414 258.147 476.693 260.216 477.104 259.976C477.515 259.746 477.855 257.077 477.855 254.059C477.855 251.041 478.297 248.453 478.838 248.313C479.369 248.173 483.66 248.173 496.904 248.563V352.5H477.855V333.012C477.855 318.101 477.565 313.514 476.602 313.494C475.911 313.484 474.226 314.663 472.843 316.132C471.469 317.591 467.63 320.07 464.321 321.649C460.06 323.678 456.772 324.517 453.043 324.517C450.145 324.517 445.413 323.638 442.516 322.558C439.619 321.479 435.268 318.89 432.851 316.812C430.435 314.723 427.408 311.225 426.124 309.026C424.841 306.828 423.107 302.78 422.265 300.032C421.422 297.283 420.721 291.217 420.701 286.54C420.681 280.853 421.322 275.896 422.656 271.549C423.738 267.971 426.124 262.844 427.939 260.156C429.754 257.457 433.042 253.859 435.248 252.17C437.453 250.481 440.832 248.543 442.767 247.873C444.701 247.203 448.421 246.634 451.038 246.604V246.604ZM445.554 269.9C444.02 271.909 442.315 275.237 441.774 277.295C441.223 279.354 440.771 282.842 440.771 285.041C440.771 287.239 441.223 290.727 441.774 292.786C442.315 294.845 444.23 298.183 446.025 300.192C447.819 302.2 450.747 304.449 452.541 305.189C454.336 305.928 457.494 306.518 459.559 306.508C461.674 306.498 465.073 305.448 467.329 304.129C470.002 302.557 472.311 299.982 474.256 296.404C476.542 292.186 477.174 289.748 477.184 285.041C477.194 281.223 476.472 277.405 475.219 274.547C474.106 272.018 471.529 268.74 469.344 267.051C466.386 264.783 464.221 263.993 460.371 263.783C457.584 263.644 453.734 264.133 451.819 264.893C449.905 265.642 447.088 267.901 445.554 269.9V269.9Z" fill="#282B2C"/>
<path fill-rule="evenodd" clip-rule="evenodd" d="M70.3233 250.971C76.7195 251.241 79.7672 251.951 85.3614 254.489C91.9481 257.467 94.7953 260.066 171.079 336.01L157.544 349.512L135.488 327.545L132.481 329.584C130.827 330.703 126.766 333.002 123.458 334.681C120.15 336.37 114.054 338.649 109.924 339.738C104.74 341.107 98.9759 341.747 91.3766 341.797C82.9051 341.857 78.5441 341.367 72.579 339.688C68.3082 338.489 62.2127 336.21 59.0447 334.621C55.8767 333.032 50.5732 329.744 47.2649 327.315C43.9565 324.887 39.1242 320.459 36.5176 317.461C33.4098 313.893 30.9235 309.626 29.2693 305.029C27.7655 300.851 26.7429 295.824 26.7328 292.536C26.7128 289.518 27.4045 284.341 28.2667 281.043C29.1189 277.745 30.8733 273.248 32.1566 271.049C33.4499 268.85 36.4675 265.143 38.8736 262.804C41.2797 260.465 45.741 257.227 48.7687 255.608C51.8064 253.989 56.0872 252.21 58.2928 251.651C60.4984 251.091 65.9121 250.791 70.3233 250.971V250.971ZM57.0998 272.798C55.5458 273.657 53.2901 275.416 52.0871 276.696C50.874 277.985 49.1797 280.733 48.3276 282.792C47.4654 284.851 46.7736 288.898 46.7736 291.787C46.7836 295.205 47.5756 298.573 49.0293 301.461C50.2625 303.899 53.3002 307.627 55.7864 309.736C58.2727 311.845 63.2253 315.063 66.8144 316.892C70.4035 318.72 76.0378 320.789 79.3461 321.489C83.0355 322.268 89.0507 322.568 94.8855 322.268C102.104 321.899 105.994 321.139 110.926 319.11C114.515 317.651 118.345 315.782 119.448 314.963C121.363 313.554 120.581 312.614 101.903 293.945C91.1561 283.202 80.7697 273.578 78.8449 272.568C76.92 271.549 73.0803 270.469 70.3233 270.17C67.5663 269.87 64.0975 269.99 62.6137 270.439C61.12 270.879 58.6437 271.949 57.0998 272.798V272.798Z" fill="#FDAD63" fill-opacity="0.99"/>
<path d="M66.8138 201.061C69.3001 200.152 74.4832 198.782 78.343 198.023C82.6238 197.173 88.8797 196.814 94.3836 197.093C99.3462 197.333 106.113 198.243 109.422 199.092C112.73 199.952 118.595 202.15 122.455 203.979C126.315 205.808 132.38 209.496 135.939 212.194C139.488 214.883 144.801 220 147.729 223.578C150.666 227.155 154.596 233.222 156.461 237.069C158.336 240.917 160.682 246.984 161.684 250.561C162.997 255.269 163.499 260.505 163.479 269.55C163.469 280.993 163.198 282.822 160.25 291.287C158.486 296.374 155.348 303.46 153.283 307.038C151.218 310.615 149.303 313.544 149.022 313.544C148.741 313.544 145.664 310.725 135.839 301.031L138.806 295.035C140.44 291.737 142.516 286.57 143.408 283.542C144.37 280.294 145.032 274.467 145.022 269.3C145.012 262.654 144.41 258.756 142.506 253.06C141.132 248.942 138.485 243.206 136.641 240.318C134.786 237.429 130.846 232.782 127.868 229.984C124.891 227.175 119.638 223.468 116.189 221.739C112.74 220 107.106 217.911 103.657 217.091C100.208 216.282 94.4638 215.602 90.8747 215.592C87.2856 215.582 81.6514 216.282 78.343 217.141C75.0346 218.001 69.1998 220.37 65.3801 222.388C61.5605 224.417 55.9162 228.605 52.8484 231.683C49.7806 234.771 45.8206 239.948 44.0561 243.176C42.2816 246.414 39.9156 252.55 38.7928 256.808C37.6599 261.065 35.6248 266.012 34.2613 267.801C32.8979 269.59 30.8226 273.518 29.6496 276.546C28.4767 279.574 27.2836 285.421 27.0029 289.538C26.5919 295.435 26.9227 298.313 28.5268 303.03C29.6496 306.328 30.4918 309.146 30.3915 309.286C30.3013 309.426 28.7975 306.948 27.053 303.789C25.3086 300.621 22.8324 294.665 21.5391 290.537C19.534 284.141 19.2032 280.993 19.2332 269.05C19.2733 256.588 19.5641 254.189 21.9601 247.063C23.4439 242.666 26.3613 236.15 28.4366 232.572C30.5218 228.994 35.8353 222.478 40.2465 218.081C45.5499 212.804 50.6629 208.826 55.2846 206.398C59.1443 204.369 64.3275 201.971 66.8138 201.061Z" fill="#FD7801"/>
<path d="M496.904 248.563L488.633 248.243L480.362 247.923L497.405 248.063V353H477.855L496.904 352.5V248.563Z" fill="#282B2C" fill-opacity="0.57"/>
<path d="M420.44 289.538C420.229 292.017 420.059 290.437 420.049 286.04C420.049 281.643 420.219 279.624 420.44 281.543C420.65 283.472 420.65 287.07 420.44 289.538Z" fill="#282B2C" fill-opacity="0.57"/>
<path d="M18.4114 272.548C18.1909 274.467 18.0104 273.348 18.0004 270.05C17.9904 266.752 18.1808 265.173 18.4014 266.552C18.632 267.921 18.632 270.629 18.4114 272.548Z" fill="#FD7901" fill-opacity="0.59"/>
<path d="M230.479 221.469C233.647 219.88 238.84 217.941 242.008 217.161C245.176 216.382 250.249 215.702 253.287 215.652C256.324 215.602 261.277 216.022 264.315 216.592C267.352 217.161 272.535 218.9 275.844 220.459C279.152 222.019 284.085 225.277 286.802 227.685C289.518 230.094 293.238 234.431 295.073 237.319C296.907 240.208 298.421 242.906 298.441 243.316C298.461 243.726 295.183 246.274 283.864 253.859L281.859 251.031C280.756 249.472 278.44 246.594 276.726 244.635C275.002 242.666 271.162 239.758 268.204 238.149C264.345 236.06 260.956 235.091 256.294 234.761C251.663 234.431 248.184 234.811 244.264 236.1C240.204 237.429 237.276 239.368 233.156 243.486C229.296 247.333 226.82 250.921 225.175 255.059C223.311 259.756 222.789 263.004 222.749 270.05C222.719 276.686 223.231 280.444 224.714 284.371C225.817 287.309 228.293 291.787 230.228 294.325C232.163 296.864 235.772 300.192 238.249 301.731C240.725 303.26 245.357 305.089 248.525 305.778C253.176 306.788 255.402 306.778 260.054 305.738C263.402 304.989 268.104 302.9 271.272 300.741C274.28 298.703 278.11 294.925 279.794 292.336C281.478 289.758 283.202 287.619 283.614 287.589C284.025 287.559 287.523 289.568 291.383 292.037C295.243 294.505 298.401 296.874 298.401 297.283C298.391 297.693 297.439 299.612 296.276 301.531C295.113 303.45 292.717 306.828 290.942 309.026C289.168 311.225 285.268 314.643 282.28 316.632C279.293 318.611 273.909 321.259 270.33 322.508C265.508 324.197 261.467 324.807 254.79 324.847C248.595 324.897 244.033 324.347 240.254 323.098C237.216 322.099 232.083 319.87 228.825 318.151C225.576 316.432 220.484 312.554 217.516 309.526C214.549 306.498 210.589 301.111 208.724 297.533C206.769 293.806 204.593 287.419 203.601 282.542C202.408 276.636 202.057 271.609 202.438 266.052C202.749 261.645 204.082 254.919 205.405 251.061C206.729 247.213 209.586 241.407 211.751 238.149C213.917 234.901 217.727 230.463 220.203 228.305C222.679 226.136 227.311 223.068 230.479 221.469Z" fill="#282B2C"/>
<path d="M389.462 270.719C389.371 242.226 389.672 218.611 390.133 218.251C390.595 217.881 394.956 217.581 408.68 217.581V322.518H389.632L389.462 270.719Z" fill="#282B2C"/>
<path d="M356.548 248.563L365.822 248.273C370.925 248.113 375.206 247.883 375.346 247.773C375.486 247.653 375.597 264.433 375.597 322.518H356.548V317.521C356.548 313.204 356.308 312.604 354.794 313.114C353.831 313.444 350.333 315.542 347.024 317.781C343.716 320.02 339.204 322.458 336.999 323.208C334.793 323.947 330.843 324.547 328.227 324.537C325.61 324.527 321.77 323.678 319.705 322.658C317.64 321.639 314.592 319.22 312.938 317.281C311.284 315.343 309.369 312.015 308.697 309.886C307.835 307.207 307.454 297.283 307.424 248.563H326.472V273.548C326.472 293.756 326.763 299.102 327.976 301.531C328.798 303.18 330.723 305.449 332.237 306.558C334.262 308.057 336.467 308.577 340.508 308.537C344.939 308.487 346.703 307.937 349.47 305.748C351.365 304.249 353.731 301.231 354.714 299.032C356.268 295.574 356.508 291.917 356.548 248.563Z" fill="#282B2C"/>
<path d="M509.937 322.518V285.54V248.563H528.985V322.518H509.937Z" fill="#282B2C"/>
<path d="M408.68 322.518L408.921 269.8L409.161 217.081L409.432 269.05C409.582 297.633 409.472 321.579 409.191 322.268C408.82 323.168 406.043 323.458 390.133 323.098L408.68 322.518Z" fill="#282B2C" fill-opacity="0.57"/>
<path d="M306.782 278.055C306.692 262.674 306.792 249.522 306.992 248.822C307.273 247.903 310 247.623 326.973 247.983L307.424 248.563L306.952 306.028L306.782 278.055Z" fill="#282B2C" fill-opacity="0.57"/>
<path d="M370.082 248.303C367.325 248.503 363.044 248.503 360.558 248.303C358.082 248.093 360.338 247.923 365.571 247.923C370.814 247.923 372.839 248.093 370.082 248.303Z" fill="#282B2C" fill-opacity="0.57"/>
<path d="M509.295 286.54C509.215 266.482 509.315 249.502 509.516 248.812C509.786 247.903 512.543 247.623 529.486 247.983L509.937 248.563V322.518L529.486 323.138L509.435 323.018L509.295 286.54Z" fill="#282B2C" fill-opacity="0.57"/>
<path d="M375.596 322.518L375.837 285.291L376.077 248.063L376.348 284.541C376.499 304.609 376.388 321.579 376.108 322.268C375.737 323.168 372.869 323.458 356.047 323.098L375.596 322.518Z" fill="#282B2C" fill-opacity="0.57"/>
<path d="M222.94 273.048C222.719 275.247 222.538 273.897 222.538 270.05C222.528 266.202 222.709 264.403 222.929 266.052C223.15 267.701 223.15 270.849 222.94 273.048Z" fill="#282B2C" fill-opacity="0.57"/>
<path d="M256.795 306.248C255.141 306.478 252.655 306.478 251.281 306.248C249.898 306.018 251.251 305.828 254.289 305.828C257.317 305.828 258.449 306.018 256.795 306.248Z" fill="#282B2C" fill-opacity="0.57"/>
<path d="M94.3838 323.248C92.1782 323.458 89.0202 323.458 87.366 323.238C85.7119 323.018 87.5164 322.838 91.3762 322.848C95.236 322.848 96.5894 323.028 94.3838 323.248Z" fill="#FEB271" fill-opacity="0.51"/>
</svg>
