<svg width="300" height="300" viewBox="0 0 300 300" fill="none" xmlns="http://www.w3.org/2000/svg">
<path fill-rule="evenodd" clip-rule="evenodd" d="M16.0152 206.631H24.8499V171.632L38.6473 202.147C40.2101 205.815 42.4554 207.174 46.8026 207.174C51.1499 207.174 53.2611 205.813 54.8757 202.147L68.6045 171.632V206.631H77.5078V171.632C77.5078 168.235 76.1475 166.601 73.293 165.718C66.5649 163.68 62.0791 165.446 60.041 169.998L46.5178 200.173L33.4683 169.998C31.4973 165.446 26.9428 163.68 20.1477 165.718C17.3602 166.601 16.0015 168.234 16.0015 171.632L16 206.631H16.0152ZM84.8619 178.156H93.7652V197.39C93.6981 198.476 94.1048 200.924 98.9441 200.989C101.457 201.058 118.109 200.989 118.243 200.989V178.019H127.147V209.486C127.147 217.233 117.55 218.93 113.078 219H85.0813V213.09H113.15C118.859 212.478 118.179 209.625 118.179 208.673V206.36H99.3523C90.5847 206.292 84.9427 202.418 84.8772 198.001V178.153L84.8619 178.156ZM275.835 155.864C270.4 155.727 266.183 156.272 262.65 157.768C261.632 158.179 259.999 158.179 259.865 159.468C260.409 160.009 260.474 160.894 260.951 161.643C261.766 163.003 263.195 164.836 264.485 165.786C265.914 166.875 267.341 167.961 268.834 168.913C271.484 170.543 274.474 171.495 277.056 173.127C278.552 174.079 280.046 175.302 281.542 176.322C282.304 176.866 282.765 177.751 283.717 178.089V177.884C283.242 177.274 283.105 176.391 282.631 175.708C281.95 175.031 281.271 174.417 280.59 173.739C278.621 171.089 276.173 168.776 273.522 166.875C271.347 165.379 266.592 163.341 265.708 160.828L265.574 160.691C267.067 160.554 268.834 160.01 270.263 159.602C272.575 158.993 274.68 159.127 277.056 158.516C278.145 158.242 279.231 157.903 280.321 157.564V156.954C279.097 155.731 278.214 154.1 276.924 152.945C273.458 149.955 269.65 147.032 265.708 144.586C263.602 143.227 260.883 142.342 258.64 141.189C257.822 140.781 256.465 140.577 255.99 139.897C254.764 138.405 254.086 136.432 253.203 134.664C251.233 130.926 249.329 126.781 247.631 122.839C246.407 120.188 245.658 117.538 244.165 115.092C237.165 103.538 229.551 96.5389 217.862 89.6737C215.349 88.2464 212.359 87.6326 209.18 86.8862L204.083 86.612C202.994 86.1368 201.908 84.8451 200.956 84.2327C197.082 81.7864 187.092 76.4856 184.236 83.4864C182.4 87.9037 186.954 92.2525 188.501 94.4962C189.658 96.059 191.151 97.826 191.969 99.5929C192.426 100.748 192.578 101.972 193.055 103.195C194.141 106.185 195.162 109.517 196.589 112.304C197.35 113.731 198.15 115.229 199.102 116.519C199.646 117.265 200.598 117.607 200.801 118.83C199.849 120.19 199.783 122.227 199.239 123.928C196.791 131.608 197.743 141.122 201.209 146.761C202.298 148.459 204.865 152.199 208.347 150.77C211.405 149.547 210.723 145.673 211.606 142.275C211.812 141.46 211.675 140.916 212.082 140.371V140.508L214.869 146.149C216.976 149.479 220.647 152.945 223.704 155.258C225.334 156.481 226.625 158.589 228.663 159.335V159.13H228.529C228.121 158.52 227.509 158.246 226.965 157.771C225.742 156.548 224.383 155.052 223.431 153.693C220.578 149.888 218.065 145.674 215.821 141.325C214.732 139.218 213.78 136.907 212.9 134.801C212.488 133.984 212.488 132.76 211.81 132.354C210.79 133.847 209.297 135.142 208.546 136.976C207.254 139.897 207.12 143.5 206.645 147.238C206.371 147.306 206.493 147.238 206.371 147.375C204.199 146.833 203.449 144.587 202.635 142.686C200.596 137.861 200.255 130.114 202.022 124.54C202.497 123.113 204.539 118.627 203.724 117.268C203.312 115.977 201.957 115.23 201.207 114.21C200.324 112.918 199.375 111.288 198.763 109.861C197.133 106.053 196.318 101.841 194.549 98.0347C193.731 96.2677 192.306 94.4322 191.149 92.8024C189.858 90.9669 188.434 89.6752 187.413 87.5016C187.073 86.7552 186.598 85.5305 187.142 84.7141C187.276 84.1703 187.55 83.9677 188.091 83.8306C188.974 83.0842 191.491 84.0347 192.374 84.4399C194.887 85.4605 196.994 86.4109 199.101 87.8367C200.053 88.516 201.073 89.8077 202.296 90.1489H203.725C205.9 90.6242 208.345 90.286 210.382 90.8953C213.984 92.053 217.245 93.7498 220.17 95.5868C229.072 101.227 236.414 109.247 241.373 118.831C242.188 120.394 242.528 121.821 243.277 123.453C244.706 126.784 246.473 130.181 247.897 133.445C249.326 136.639 250.685 139.904 252.723 142.554C253.743 143.981 257.819 144.728 259.653 145.475C261.014 146.085 263.119 146.633 264.345 147.38C266.654 148.807 268.965 150.438 271.139 152.001C272.225 152.814 275.624 154.514 275.827 155.87L275.835 155.864ZM206.528 96.8054C205.589 96.7971 204.653 96.9113 203.743 97.1451V97.2822H203.878C204.421 98.3698 205.373 99.1177 206.053 100.07L207.617 103.332L207.751 103.195C208.703 102.516 209.18 101.428 209.18 99.7986C208.772 99.3233 208.705 98.8465 208.365 98.3713C207.957 97.6919 207.073 97.3507 206.528 96.8085V96.8054Z" fill="#00678C"/>
<path fill-rule="evenodd" clip-rule="evenodd" d="M133.931 206.632H159.484C162.474 206.632 165.33 206.022 167.64 204.933C171.513 203.166 173.349 200.79 173.349 197.663V191.139C173.349 188.626 171.242 186.245 167.03 184.615C164.855 183.8 162.136 183.323 159.486 183.323H148.747C145.145 183.323 143.446 182.234 142.969 179.858C142.902 179.587 142.902 179.314 142.902 179.043V175.032C142.902 174.827 142.902 174.557 142.969 174.286C143.445 172.45 144.397 171.974 147.539 171.635H173.704V165.721H148.829C145.227 165.721 143.324 165.926 141.624 166.47C136.391 168.1 134.08 170.683 134.08 175.235V180.403C134.08 184.409 138.566 187.811 146.177 188.626C146.992 188.694 147.876 188.694 148.759 188.694H157.935C158.275 188.694 158.613 188.694 158.884 188.763C161.672 189.034 162.895 189.509 163.71 190.527C164.253 191.07 164.391 191.547 164.391 192.159V197.323C164.391 197.932 163.982 198.752 163.167 199.43C162.353 200.108 161.058 200.584 159.359 200.653C159.02 200.653 158.819 200.721 158.476 200.721H133.931V206.632ZM228.668 196.371C228.668 202.418 233.237 205.815 242.331 206.498C243.214 206.566 244.029 206.632 244.913 206.632H268.02V200.721H244.71C239.542 200.721 237.572 199.43 237.572 196.304V165.721H228.651V196.373L228.668 196.371ZM178.988 196.641V175.575C178.988 170.205 182.793 166.941 190.203 165.923C191.018 165.855 191.833 165.786 192.579 165.786H209.432C210.316 165.786 211.065 165.855 211.949 165.923C219.356 166.941 223.093 170.204 223.093 175.575V196.641C223.093 200.99 221.531 203.302 217.859 204.866L226.556 212.747H216.296L209.228 206.36L202.09 206.769H192.576C190.833 206.76 189.098 206.532 187.411 206.091C181.775 204.525 178.988 201.536 178.988 196.641ZM188.569 196.169C188.569 196.44 188.721 196.709 188.774 197.052C189.25 199.497 191.559 200.857 195.093 200.857H203.114L195.775 194.196H206.036L212.491 200.042C213.717 199.361 214.464 198.409 214.735 197.186C214.803 196.915 214.803 196.577 214.803 196.303V176.117C214.803 175.846 214.803 175.576 214.735 175.302C214.259 172.993 211.95 171.703 208.483 171.703H195.094C191.152 171.703 188.57 173.401 188.57 176.117L188.569 196.169Z" fill="#CE8B2C"/>
</svg>
