<svg width="28" height="28" viewBox="0 0 28 28" fill="none" xmlns="http://www.w3.org/2000/svg">
<path d="M11.6673 17.4999L17.7223 13.9999L11.6673 10.4999V17.4999ZM25.154 8.36492C25.3057 8.91325 25.4107 9.64825 25.4807 10.5816C25.5623 11.5149 25.5973 12.3199 25.5973 13.0199L25.6673 13.9999C25.6673 16.5549 25.4807 18.4333 25.154 19.6349C24.8623 20.6849 24.1857 21.3616 23.1357 21.6533C22.5873 21.8049 21.584 21.9099 20.044 21.9799C18.5273 22.0616 17.139 22.0966 15.8557 22.0966L14.0007 22.1666C9.11232 22.1666 6.06732 21.9799 4.86565 21.6533C3.81565 21.3616 3.13898 20.6849 2.84732 19.6349C2.69565 19.0866 2.59065 18.3516 2.52065 17.4183C2.43898 16.4849 2.40398 15.6799 2.40398 14.9799L2.33398 13.9999C2.33398 11.4449 2.52065 9.56659 2.84732 8.36492C3.13898 7.31492 3.81565 6.63825 4.86565 6.34659C5.41398 6.19492 6.41732 6.08992 7.95732 6.01992C9.47399 5.93825 10.8623 5.90325 12.1457 5.90325L14.0007 5.83325C18.889 5.83325 21.934 6.01992 23.1357 6.34659C24.1857 6.63825 24.8623 7.31492 25.154 8.36492Z" fill="#242424"/>
</svg>
